<svg width="162" height="163" viewBox="0 0 162 163" fill="none" xmlns="http://www.w3.org/2000/svg">
<path d="M51.0959 132.67C22.8766 116.378 13.3199 80.1002 29.7504 51.6418C46.1809 23.1834 82.3766 13.3209 110.596 29.6133C138.815 45.9057 148.372 82.1834 131.941 110.642C115.511 139.1 79.3152 148.963 51.0959 132.67ZM107.45 35.0627C82.2148 20.4933 49.8469 29.3128 35.1541 54.7616C20.4612 80.2104 29.0072 112.651 54.2421 127.221C79.477 141.79 111.845 132.971 126.538 107.522C141.231 82.0732 132.685 49.6321 107.45 35.0627Z" fill="#70CA7F"/>
<path d="M90.3519 61L75.317 76.0349L71.7677 72.4855L69.9332 74.32L73.4826 77.8694L70.8504 80.5015L62.8345 72.4855L61 74.32L69.9332 83.2532L70.8504 84.1306L71.7677 83.2532L75.317 79.7039L78.8664 83.2532L79.7836 84.1306L80.7009 83.2532L101 62.8345L99.1655 61L79.7836 80.5015L77.1515 77.8694L92.1864 62.8345L90.3519 61Z" fill="#70CA7F"/>
<path d="M64.5739 98H60.6562V87.8182H64.5341C65.5814 87.8182 66.4863 88.022 67.2486 88.4297C68.0142 88.834 68.6042 89.4174 69.0185 90.1797C69.4361 90.9387 69.6449 91.8485 69.6449 92.9091C69.6449 93.9697 69.4377 94.8812 69.0234 95.6435C68.6091 96.4025 68.0225 96.9858 67.2635 97.3935C66.5045 97.7978 65.608 98 64.5739 98ZM63.4205 95.6534H64.4744C64.9782 95.6534 65.4074 95.5722 65.7621 95.4098C66.12 95.2474 66.3918 94.9673 66.5774 94.5696C66.7663 94.1719 66.8608 93.6184 66.8608 92.9091C66.8608 92.1998 66.7647 91.6463 66.5724 91.2486C66.3835 90.8509 66.1051 90.5708 65.7372 90.4084C65.3726 90.246 64.9252 90.1648 64.3949 90.1648H63.4205V95.6534ZM74.6426 98.1392C73.814 98.1392 73.1047 97.9751 72.5147 97.647C71.9248 97.3156 71.4724 96.8549 71.1575 96.2649C70.8426 95.6716 70.6852 94.9839 70.6852 94.2017C70.6852 93.4195 70.8426 92.7334 71.1575 92.1435C71.4724 91.5502 71.9248 91.0895 72.5147 90.7614C73.1047 90.4299 73.814 90.2642 74.6426 90.2642C75.4712 90.2642 76.1805 90.4299 76.7704 90.7614C77.3604 91.0895 77.8128 91.5502 78.1277 92.1435C78.4425 92.7334 78.6 93.4195 78.6 94.2017C78.6 94.9839 78.4425 95.6716 78.1277 96.2649C77.8128 96.8549 77.3604 97.3156 76.7704 97.647C76.1805 97.9751 75.4712 98.1392 74.6426 98.1392ZM74.6625 96.1108C74.8945 96.1108 75.095 96.0329 75.264 95.8771C75.4331 95.7214 75.564 95.4993 75.6568 95.2109C75.7496 94.9226 75.796 94.5795 75.796 94.1818C75.796 93.7808 75.7496 93.4377 75.6568 93.1527C75.564 92.8643 75.4331 92.6423 75.264 92.4865C75.095 92.3307 74.8945 92.2528 74.6625 92.2528C74.4172 92.2528 74.2067 92.3307 74.0311 92.4865C73.8554 92.6423 73.7212 92.8643 73.6284 93.1527C73.5356 93.4377 73.4892 93.7808 73.4892 94.1818C73.4892 94.5795 73.5356 94.9226 73.6284 95.2109C73.7212 95.4993 73.8554 95.7214 74.0311 95.8771C74.2067 96.0329 74.4172 96.1108 74.6625 96.1108ZM82.4579 93.7045V98H79.7136V90.3636H82.3187V91.8153H82.3983C82.564 91.3314 82.8556 90.9519 83.2733 90.6768C83.6942 90.4018 84.1847 90.2642 84.7449 90.2642C85.2851 90.2642 85.7541 90.3885 86.1518 90.6371C86.5529 90.8823 86.8627 91.2204 87.0815 91.6513C87.3036 92.0821 87.4129 92.5743 87.4096 93.1278V98H84.6653V93.7045C84.6686 93.3267 84.5725 93.0301 84.377 92.8146C84.1847 92.5992 83.9163 92.4915 83.5716 92.4915C83.3462 92.4915 83.149 92.5412 82.9799 92.6406C82.8142 92.7367 82.6866 92.8759 82.5971 93.0582C82.5076 93.2372 82.4612 93.4527 82.4579 93.7045ZM92.4235 98.1392C91.6081 98.1392 90.9055 97.9834 90.3155 97.6719C89.7289 97.357 89.2765 96.9062 88.9583 96.3196C88.6434 95.7296 88.486 95.0237 88.486 94.2017C88.486 93.4129 88.6451 92.7235 88.9632 92.1335C89.2814 91.5436 89.7305 91.0845 90.3105 90.7564C90.8906 90.4283 91.575 90.2642 92.3638 90.2642C92.9405 90.2642 93.4625 90.3537 93.9299 90.5327C94.3972 90.7116 94.7966 90.9718 95.128 91.3132C95.4595 91.6513 95.7147 92.0623 95.8936 92.5462C96.0726 93.0301 96.1621 93.5753 96.1621 94.1818V94.8182H89.3411V93.3068H93.6365C93.6332 93.0881 93.5769 92.8958 93.4675 92.7301C93.3614 92.5611 93.2173 92.4302 93.035 92.3374C92.856 92.2412 92.6522 92.1932 92.4235 92.1932C92.2014 92.1932 91.9976 92.2412 91.812 92.3374C91.6264 92.4302 91.4772 92.5594 91.3645 92.7251C91.2551 92.8909 91.1971 93.0848 91.1905 93.3068V94.9375C91.1905 95.1828 91.2419 95.4015 91.3446 95.5938C91.4474 95.786 91.5949 95.9368 91.7871 96.0462C91.9793 96.1555 92.2114 96.2102 92.4831 96.2102C92.6721 96.2102 92.8444 96.1837 93.0002 96.1307C93.1593 96.0777 93.2952 96.0014 93.4078 95.902C93.5205 95.7992 93.6034 95.6766 93.6564 95.5341H96.1621C96.0759 96.0644 95.8721 96.5251 95.5506 96.9162C95.2291 97.304 94.8032 97.6056 94.2729 97.821C93.7459 98.0331 93.1294 98.1392 92.4235 98.1392ZM100.464 87.8182L100.205 94.8182H97.9382L97.6797 87.8182H100.464ZM99.0717 98.1591C98.6873 98.1591 98.3575 98.0249 98.0824 97.7564C97.8106 97.4846 97.6764 97.1548 97.6797 96.767C97.6764 96.3892 97.8106 96.0661 98.0824 95.7976C98.3575 95.5291 98.6873 95.3949 99.0717 95.3949C99.4363 95.3949 99.7578 95.5291 100.036 95.7976C100.318 96.0661 100.46 96.3892 100.464 96.767C100.46 97.0256 100.393 97.2609 100.26 97.473C100.131 97.6818 99.9616 97.8492 99.7528 97.9751C99.544 98.0978 99.317 98.1591 99.0717 98.1591Z" fill="#70CA7F"/>
</svg>
