<svg width="162" height="163" viewBox="0 0 162 163" fill="none" xmlns="http://www.w3.org/2000/svg">
<g id="Property 1=Variant2">
<path id="Ellipse 72" d="M131.941 110.585C126.724 119.621 119.243 127.138 110.248 132.381C101.252 137.625 91.0595 140.411 80.6914 140.46C70.3232 140.509 60.1445 137.819 51.1763 132.66C42.208 127.501 34.7656 120.055 29.5956 111.068C24.4256 102.081 21.7097 91.8691 21.7205 81.4573C21.7313 71.0455 24.4684 60.7996 29.6571 51.7473C34.8458 42.6951 42.3038 35.1549 51.2828 29.8831C60.2619 24.6113 70.4463 21.7932 80.8145 21.7116L80.8178 27.9907C71.5461 28.0637 62.4388 30.5837 54.4093 35.298C46.3798 40.0123 39.7106 46.7551 35.0706 54.85C30.4306 62.9449 27.983 72.1072 27.9734 81.4179C27.9637 90.7286 30.3924 99.8603 35.0156 107.897C39.6389 115.933 46.2942 122.592 54.314 127.206C62.3338 131.819 71.4361 134.224 80.7077 134.181C89.9794 134.137 99.0944 131.646 107.138 126.957C115.182 122.268 121.873 115.546 126.538 107.465L131.941 110.585Z" fill="#625F5F"/>
<g id="Ellipse 73">
<mask id="path-2-inside-1_1414_2427" fill="white">
<path d="M51.0959 132.614C22.8766 116.321 13.3199 80.0436 29.7504 51.5851C46.1809 23.1267 82.3766 13.2642 110.596 29.5566C138.815 45.849 148.372 82.1267 131.941 110.585C115.511 139.044 79.3152 148.906 51.0959 132.614ZM107.45 35.0061C82.2148 20.4367 49.8469 29.2562 35.1541 54.7049C20.4612 80.1537 29.0072 112.595 54.2421 127.164C79.477 141.734 111.845 132.914 126.538 107.465C141.231 82.0166 132.685 49.5755 107.45 35.0061Z"/>
</mask>
<path d="M51.0959 132.614C22.8766 116.321 13.3199 80.0436 29.7504 51.5851C46.1809 23.1267 82.3766 13.2642 110.596 29.5566C138.815 45.849 148.372 82.1267 131.941 110.585C115.511 139.044 79.3152 148.906 51.0959 132.614ZM107.45 35.0061C82.2148 20.4367 49.8469 29.2562 35.1541 54.7049C20.4612 80.1537 29.0072 112.595 54.2421 127.164C79.477 141.734 111.845 132.914 126.538 107.465C141.231 82.0166 132.685 49.5755 107.45 35.0061Z" stroke="#625F5F" mask="url(#path-2-inside-1_1414_2427)"/>
</g>
</g>
</svg>
